<svg version="1.1" id="Layer_1" xmlns="http://www.w3.org/2000/svg" xmlns:xlink="http://www.w3.org/1999/xlink" x="0px" y="0px"
	 width="100%" viewBox="0 0 896 896" enable-background="new 0 0 896 896" xml:space="preserve">
<path fill="#000000" opacity="1.000000" stroke="none" 
	d="
M592.000000,897.000000 
	C394.666656,897.000000 197.833328,897.000000 1.000000,897.000000 
	C1.000000,598.333313 1.000000,299.666656 1.000000,1.000000 
	C299.666656,1.000000 598.333313,1.000000 897.000000,1.000000 
	C897.000000,299.666656 897.000000,598.333313 897.000000,897.000000 
	C795.500000,897.000000 694.000000,897.000000 592.000000,897.000000 
M246.500076,244.829544 
	C212.901474,244.829544 179.302872,244.829544 145.539703,244.829544 
	C145.539703,379.796753 145.539703,514.189087 145.539703,648.821350 
	C146.891632,648.889038 148.020889,648.994995 149.150131,648.994995 
	C200.473236,648.995605 251.796448,649.046387 303.119385,648.948059 
	C321.664459,648.912476 340.062775,647.004333 357.923950,641.891052 
	C387.180939,633.515198 411.260376,617.991089 425.663910,590.154541 
	C437.012238,568.222717 439.474365,544.730225 435.792053,520.673645 
	C431.023010,489.517487 414.950073,465.712036 387.213409,450.295685 
	C376.811584,444.514252 365.588043,440.970490 353.708679,440.604553 
	C351.724823,435.976929 355.014893,435.812592 357.667267,434.976715 
	C380.086212,427.911621 399.132477,416.276093 411.110687,395.193939 
	C418.538025,382.121582 421.161591,367.854065 421.378082,353.016663 
	C421.771515,326.051331 414.681427,301.609680 396.034363,281.520905 
	C374.893646,258.745636 347.748138,248.166962 317.426361,246.215973 
	C294.184082,244.720490 270.813568,245.218292 246.500076,244.829544 
M584.781494,471.499908 
	C584.781494,530.584045 584.781494,589.668152 584.781494,648.611145 
	C605.849121,648.611145 626.225708,648.611145 646.592468,648.611145 
	C646.592468,531.622925 646.592468,415.024506 646.592468,297.927216 
	C688.544434,297.927216 730.271423,297.927216 771.851929,297.927216 
	C771.851929,279.996368 771.851929,262.566376 771.851929,245.084427 
	C667.287537,245.084427 563.053101,245.084427 458.769440,245.084427 
	C458.769440,262.754120 458.769440,280.167603 458.769440,298.089478 
	C500.855927,298.089478 542.568542,298.089478 584.780701,298.089478 
	C584.780701,355.899353 584.780701,413.199615 584.781494,471.499908 
z"/>
<path fill="#FEFEFE" opacity="1.000000" stroke="none" 
	d="
M247.000092,244.829559 
	C270.813568,245.218292 294.184082,244.720490 317.426361,246.215973 
	C347.748138,248.166962 374.893646,258.745636 396.034363,281.520905 
	C414.681427,301.609680 421.771515,326.051331 421.378082,353.016663 
	C421.161591,367.854065 418.538025,382.121582 411.110687,395.193939 
	C399.132477,416.276093 380.086212,427.911621 357.667267,434.976715 
	C355.014893,435.812592 351.724823,435.976929 353.708679,440.604553 
	C365.588043,440.970490 376.811584,444.514252 387.213409,450.295685 
	C414.950073,465.712036 431.023010,489.517487 435.792053,520.673645 
	C439.474365,544.730225 437.012238,568.222717 425.663910,590.154541 
	C411.260376,617.991089 387.180939,633.515198 357.923950,641.891052 
	C340.062775,647.004333 321.664459,648.912476 303.119385,648.948059 
	C251.796448,649.046387 200.473236,648.995605 149.150131,648.994995 
	C148.020889,648.994995 146.891632,648.889038 145.539703,648.821350 
	C145.539703,514.189087 145.539703,379.796753 145.539703,244.829544 
	C179.302872,244.829544 212.901474,244.829544 247.000092,244.829559 
M322.926270,593.658569 
	C324.067627,593.426331 325.207764,593.187805 326.350555,592.962769 
	C365.922607,585.169495 385.270813,551.185425 371.696808,513.312500 
	C362.689026,488.179840 335.089508,468.552917 306.681488,468.050507 
	C274.527039,467.481842 242.359406,467.654633 210.197418,467.526794 
	C209.270294,467.523102 208.342209,467.765442 207.460617,467.886719 
	C207.460617,510.662079 207.460617,553.068237 207.460617,595.831909 
	C210.567078,595.831909 213.374252,595.877930 216.179550,595.825012 
	C251.475632,595.159546 286.771423,594.479797 322.926270,593.658569 
M207.150909,398.499817 
	C207.150909,405.451904 207.150909,412.403961 207.150909,419.832092 
	C210.583450,419.832092 213.540726,419.853271 216.497650,419.828766 
	C243.815964,419.602570 271.199646,420.469635 298.435547,418.851654 
	C330.850189,416.926086 359.173889,395.288391 360.614899,358.737671 
	C361.442657,337.742065 353.632690,320.658447 335.972473,308.830078 
	C324.301208,301.012970 310.894989,298.202759 297.075592,298.061523 
	C268.085968,297.765259 239.092026,297.883514 210.099838,297.854492 
	C209.175430,297.853577 208.250778,298.103638 207.150833,298.261932 
	C207.150833,331.555267 207.150833,364.527588 207.150909,398.499817 
z"/>
<path fill="#FEFEFE" opacity="1.000000" stroke="none" 
	d="
M584.781128,470.999878 
	C584.780701,413.199615 584.780701,355.899353 584.780701,298.089478 
	C542.568542,298.089478 500.855927,298.089478 458.769440,298.089478 
	C458.769440,280.167603 458.769440,262.754120 458.769440,245.084427 
	C563.053101,245.084427 667.287537,245.084427 771.851929,245.084427 
	C771.851929,262.566376 771.851929,279.996368 771.851929,297.927216 
	C730.271423,297.927216 688.544434,297.927216 646.592468,297.927216 
	C646.592468,415.024506 646.592468,531.622925 646.592468,648.611145 
	C626.225708,648.611145 605.849121,648.611145 584.781494,648.611145 
	C584.781494,589.668152 584.781494,530.584045 584.781128,470.999878 
z"/>
<path fill="#010101" opacity="1.000000" stroke="none" 
	d="
M322.496765,593.731201 
	C286.771423,594.479797 251.475632,595.159546 216.179550,595.825012 
	C213.374252,595.877930 210.567078,595.831909 207.460617,595.831909 
	C207.460617,553.068237 207.460617,510.662079 207.460617,467.886719 
	C208.342209,467.765442 209.270294,467.523102 210.197418,467.526794 
	C242.359406,467.654633 274.527039,467.481842 306.681488,468.050507 
	C335.089508,468.552917 362.689026,488.179840 371.696808,513.312500 
	C385.270813,551.185425 365.922607,585.169495 326.350555,592.962769 
	C325.207764,593.187805 324.067627,593.426331 322.496765,593.731201 
z"/>
<path fill="#010101" opacity="1.000000" stroke="none" 
	d="
M207.150879,397.999878 
	C207.150833,364.527588 207.150833,331.555267 207.150833,298.261932 
	C208.250778,298.103638 209.175430,297.853577 210.099838,297.854492 
	C239.092026,297.883514 268.085968,297.765259 297.075592,298.061523 
	C310.894989,298.202759 324.301208,301.012970 335.972473,308.830078 
	C353.632690,320.658447 361.442657,337.742065 360.614899,358.737671 
	C359.173889,395.288391 330.850189,416.926086 298.435547,418.851654 
	C271.199646,420.469635 243.815964,419.602570 216.497650,419.828766 
	C213.540726,419.853271 210.583450,419.832092 207.150909,419.832092 
	C207.150909,412.403961 207.150909,405.451904 207.150879,397.999878 
z"/>
</svg>