<?xml version="1.0" encoding="UTF-8" standalone="no" ?>
<!DOCTYPE svg PUBLIC "-//W3C//DTD SVG 1.1//EN" "http://www.w3.org/Graphics/SVG/1.1/DTD/svg11.dtd">
<svg xmlns="http://www.w3.org/2000/svg" xmlns:xlink="http://www.w3.org/1999/xlink" version="1.1" width="1080" height="1080" viewBox="0 0 1080 1080" xml:space="preserve">
<desc>Created with Fabric.js 5.2.4</desc>
<defs>
</defs>
<rect x="0" y="0" width="100%" height="100%" fill="transparent"></rect>
<g transform="matrix(1 0 0 1 540 540)" id="31681a7a-e299-4b35-acf9-f525339c8120"  >
<rect style="stroke: none; stroke-width: 1; stroke-dasharray: none; stroke-linecap: butt; stroke-dashoffset: 0; stroke-linejoin: miter; stroke-miterlimit: 4; fill: rgb(255,255,255); fill-rule: nonzero; opacity: 1;" vector-effect="non-scaling-stroke"  x="-540" y="-540" rx="0" ry="0" width="1080" height="1080" />
</g>
<g transform="matrix(1 0 0 1 540 540)" id="3a7ea05e-df38-49d2-b1ac-b2c4be303b7d"  >
</g>
<g transform="matrix(1 0 0 1 540 540)" id="9a0fe52f-a5ed-4c5c-8b84-fd479ad38071"  >
<path style="stroke: rgb(0,0,0); stroke-width: 0; stroke-dasharray: none; stroke-linecap: butt; stroke-dashoffset: 0; stroke-linejoin: miter; stroke-miterlimit: 4; fill: rgb(0,0,0); fill-rule: nonzero; opacity: 1;" vector-effect="non-scaling-stroke"  transform=" translate(-565.92, -417.07)" d="M 89.15 820.67 L 86.0205 819.3031 L 82.5672 810.2606999999999 L 86.0742 799.6057 L 94.5164 791.1057 L 103.71170000000001 791.1057 L 110.77950000000001 794.4761 L 110.77950000000001 796.1057 L 104.68860000000001 796.1057 L 102.23410000000001 798.5603 L 99.77950000000001 801.0148 L 99.79480000000001 803.8103 L 99.8101 806.6057 L 101.71000000000001 809.6057 L 119.28 809.5291 L 134.53300000000002 803.9339 L 140.82950000000002 800.1047 L 142.77970000000002 794.9754 L 142.77970000000002 788.5506 L 145.89310000000003 784.1056 L 149.64010000000002 784.1056 L 162.2801 789.9122 L 174.2801 794.8954 L 190.9111 799.3602 L 205.2801 798.3567999999999 L 216.7341 793.9790999999999 L 220.98080000000002 788.0151999999999 L 221.17520000000002 781.1548999999999 L 216.43160000000003 776.1055999999999 L 208.45530000000002 776.1055999999999 L 198.93330000000003 782.2157999999998 L 190.49770000000004 791.3673999999999 L 191.20687000000004 788.4864999999999 L 191.91603000000003 785.6055999999999 L 198.28023000000005 773.0065999999998 L 207.83333000000005 760.2465999999998 L 217.28023000000005 752.3775999999998 L 229.32423000000006 746.1395999999997 L 240.05323000000004 744.1047999999997 L 253.46223000000003 744.1047999999997 L 262.74433000000005 746.8982999999997 L 279.21133000000003 762.1972999999997 L 290.13833000000005 769.4498999999997 L 304.20433 775.3599999999997 L 316.27933 775.4477999999997 L 322.65793 772.1165999999997 L 325.77933 767.6601999999997 L 325.77933 763.8412999999997 L 321.44443 756.6051999999997 L 318.86183 753.9971999999998 L 316.27933 751.3891999999998 L 301.77933 742.1182999999999 L 301.77933 741.2682499999999 L 315.27933 736.6620499999999 L 333.27933 736.6896499999999 L 350.98533000000003 742.2323499999999 L 351.94379000000004 741.2738999999999 L 329.27879 725.1958999999999 L 309.27879 714.8128999999999 L 296.27879 706.1716999999999 L 283.25879000000003 693.6056999999998 L 272.21579 680.6056999999998 L 263.96849000000003 668.5576999999998 L 253.09249000000003 647.5356999999998 L 246.82489000000004 630.6056999999998 L 242.27949000000004 612.6056999999998 L 242.34309000000005 575.6056999999998 L 245.10449000000006 566.1056999999998 L 247.86589000000006 556.6056999999998 L 261.71189000000004 528.6056999999998 L 263.68339000000003 522.4196999999998 L 265.65499000000005 516.2336999999998 L 266.72409000000005 506.6457999999998 L 267.79319000000004 497.05799999999977 L 265.71679000000006 478.60599999999977 L 260.1059900000001 466.60599999999977 L 250.72229000000007 456.97079999999977 L 239.72229000000007 452.10599999999977 L 228.09229000000008 452.10599999999977 L 216.70229000000006 456.0248999999998 L 210.92069000000006 460.14179999999976 L 206.77969000000007 466.8420999999998 L 206.77969000000007 478.1660999999998 L 211.77969000000007 490.0450999999998 L 211.75029000000006 498.6053999999998 L 209.27979000000008 503.4090999999998 L 207.77979000000008 504.2216899999998 L 206.27979000000008 505.0342699999998 L 175.27979000000008 519.9582699999999 L 163.16779000000008 527.8107699999998 L 149.55779000000007 540.5427699999998 L 141.82529000000008 551.9297699999997 L 136.78039000000007 566.9577699999998 L 136.78039000000007 570.7228699999997 L 133.99679000000006 574.5296699999997 L 132.58699000000007 573.3596699999997 L 131.17719000000008 572.1896699999998 L 116.89119000000008 569.8303699999998 L 107.71919000000008 556.0373699999998 L 101.78049000000009 545.0603699999998 L 101.78849000000008 537.6054699999999 L 106.05269000000008 530.6054699999999 L 118.44769000000008 516.6054699999999 L 124.51179000000008 507.60546999999985 L 129.85609000000008 497.02346999999986 L 129.2808100000001 468.39646999999985 L 136.8469100000001 453.88146999999987 L 148.1799100000001 440.10546999999985 L 149.5149100000001 440.10546999999985 L 158.6370100000001 426.50946999999985 L 169.7290100000001 404.44246999999984 L 174.7755100000001 385.60546999999985 L 174.7785100000001 380.3929699999999 L 174.78151000000008 375.1804699999999 L 170.6960100000001 364.2604699999999 L 162.85341000000008 357.1750699999999 L 157.56751000000008 354.39006999999987 L 152.2801100000001 351.60506999999984 L 160.1999100000001 350.95930999999985 L 172.27991000000011 354.3353099999998 L 180.0640100000001 358.29060999999984 L 189.66091000000011 367.26730999999984 L 196.24231000000012 382.60530999999986 L 196.27991000000011 405.95430999999985 L 202.1323100000001 398.60520999999983 L 213.3423100000001 387.4592099999998 L 230.38631000000012 376.35020999999983 L 248.27931000000012 368.0278099999998 L 251.75061000000014 366.10650999999984 L 271.27961000000016 360.9551099999998 L 287.27961000000016 360.02221999999983 L 282.41841000000016 363.6056199999998 L 263.27941000000015 371.62001999999984 L 250.84241000000014 378.3506199999998 L 235.77941000000015 391.2546199999998 L 235.77941000000015 393.3388199999998 L 240.27941000000015 392.02581999999984 L 253.27941000000015 389.8574199999998 L 273.27941000000015 390.8982199999998 L 291.2854100000002 395.9970199999998 L 303.2604100000002 401.2930199999998 L 319.6654100000002 411.98601999999977 L 337.2014100000002 429.0170199999998 L 335.8418100000002 430.3766199999998 L 331.27941000000015 427.42871999999977 L 321.27941000000015 423.7613199999998 L 319.27941000000015 422.33861999999976 L 299.29441000000014 416.0392199999998 L 284.77941000000015 414.8123199999998 L 284.77941000000015 417.8793199999998 L 298.27941000000015 420.37171999999975 L 311.22741000000013 425.1848199999998 L 321.27941000000015 431.5527199999998 L 333.0334100000002 442.6057199999998 L 344.44041000000016 457.6057199999998 L 352.04981000000015 469.5677199999998 L 360.77901000000014 485.3487199999998 L 360.77901000000014 486.4795199999998 L 355.27901000000014 481.4270199999998 L 343.27901000000014 472.4333199999998 L 329.4770100000001 464.7641199999998 L 330.8837100000001 470.6054199999998 L 342.4377100000001 491.6054199999998 L 346.5742100000001 501.6054199999998 L 347.6080100000001 507.1054199999998 L 348.6418100000001 512.6054199999999 L 349.2447400000001 519.6054199999999 L 349.8476600000001 526.6054199999999 L 347.6374600000001 546.6054199999999 L 342.57166000000007 561.6054199999999 L 339.05356000000006 567.9860199999998 L 335.53546000000006 574.3666199999998 L 329.6730600000001 583.0531199999998 L 328.72627000000006 583.6382699999998 L 327.77948000000004 584.2234099999998 L 327.77948000000004 581.2030099999998 L 330.92478000000006 569.6050099999999 L 331.4956900000001 554.3550099999999 L 332.0665900000001 539.1050099999999 L 327.7522900000001 539.1050099999999 L 323.06689000000006 549.6050099999999 L 317.80289000000005 566.6050099999999 L 316.81092000000007 573.6050099999999 L 315.81896000000006 580.6050099999999 L 315.77936000000005 595.7380099999999 L 317.96906000000007 607.6050099999999 L 322.7346600000001 618.9380099999998 L 328.58576000000005 627.6046099999999 L 341.33876000000004 639.8476099999999 L 352.54676000000006 647.0170099999999 L 366.27976000000007 653.6836099999999 L 381.27976000000007 658.96291 L 399.27976000000007 663.94281 L 425.27976000000007 669.02211 L 456.27976000000007 673.24531 L 474.14876000000004 675.20191 L 482.02956000000006 674.60495 L 487.27956000000006 664.60495 L 487.27956000000006 643.60495 L 480.52006000000006 631.6749500000001 L 473.49116000000004 623.2660500000001 L 460.27916000000005 612.52605 L 438.27916000000005 596.69905 L 411.15916000000004 569.60405 L 397.08016000000003 550.60405 L 387.62056 535.83605 L 377.84556000000003 516.60405 L 373.58986000000004 506.60405000000003 L 370.75726000000003 498.60405000000003 L 367.92466 490.60405000000003 L 361.86556 466.60405000000003 L 360.87363 458.60405000000003 L 359.88171 450.60405000000003 L 357.57941 424.93605 L 358.72381 411.27005 L 359.86821000000003 397.60405000000003 L 361.93801 380.60405000000003 L 364.83571 368.60405000000003 L 367.73341 356.60405000000003 L 375.90441 334.60405000000003 L 383.94941 310.60405000000003 L 389.87351 284.60405000000003 L 390.89971 273.68105 L 391.92591000000004 262.75805 L 389.78171000000003 243.60305000000002 L 385.07801 228.60305000000002 L 379.98391 218.57405000000003 L 370.43030999999996 205.86505000000002 L 355.74030999999997 193.33105000000003 L 342.27930999999995 186.32185000000004 L 325.27930999999995 181.23095000000004 L 308.87730999999997 179.02165000000002 L 298.52730999999994 180.39465 L 281.27930999999995 194.32765 L 276.27930999999995 196.25885 L 264.59030999999993 199.26745 L 258.71190999999993 196.83255 L 254.62700999999993 191.60325 L 229.37200999999993 165.60325 L 215.01300999999992 153.59325 L 199.72400999999994 144.84575 L 182.27900999999994 138.70345 L 151.77900999999994 138.98328 L 151.77000999999996 132.79318 L 151.76100999999997 126.60308 L 151.17680999999996 121.60308 L 150.59259999999995 116.60308 L 155.27839999999995 110.22148 L 167.22739999999996 95.60348 L 171.27799999999996 92.05808 L 179.16789999999997 87.86388000000001 L 189.61989999999997 88.94258 L 212.2779 98.93168 L 227.2779 103.55388 L 245.2779 103.52828000000001 L 262.2779 94.60378000000001 L 283.2779 94.60343000000002 L 300.2779 100.41333000000002 L 316.9649 108.13553000000002 L 325.2775 110.05463000000002 L 340.2775 110.09583000000002 L 357.2775 107.31453000000002 L 371.2775 102.79513000000001 L 377.27299999999997 99.69923000000001 L 383.2691 96.60343000000002 L 398.7781 81.83843000000002 L 398.7781 88.68363000000002 L 395.7948 100.13763000000003 L 393.3403 104.98133000000003 L 390.8858 109.82503000000003 L 380.5348 121.15103000000002 L 368.4638 128.22553000000002 L 358.7783 130.70423000000002 L 361.1782 133.10413000000003 L 363.85790000000003 133.10413000000003 L 372.2782 137.40023000000002 L 390.2782 141.96443000000002 L 405.55620000000005 146.07363 L 433.2782 155.33333000000002 L 454.4152 163.93303000000003 L 473.8312 173.38023000000004 L 474.89660000000003 175.10413000000003 L 472.27860000000004 175.07333000000003 L 456.44160000000005 171.08303000000004 L 438.27860000000004 168.98193000000003 L 419.27860000000004 169.60402000000005 L 419.44463 170.60402000000005 L 419.61067 171.60402000000005 L 445.34867 184.66802000000004 L 461.27867000000003 196.55502000000004 L 479.37967000000003 214.60402000000005 L 484.00577000000004 221.12832000000006 L 488.63187000000005 227.65262000000007 L 495.86227 240.44462000000007 L 501.61657 254.60362000000006 L 502.99267000000003 259.3541200000001 L 500.81267 258.00682000000006 L 492.11867 244.60382000000007 L 481.71967 233.25982000000008 L 470.70367 225.94782000000006 L 458.70367 221.89542000000006 L 451.84807 223.18152000000006 L 450.92551000000003 224.67422000000008 L 465.00251000000003 235.60422000000008 L 477.71251 249.45322000000007 L 484.68781 263.60422000000005 L 487.90541 275.60422000000005 L 488.45244 289.60422000000005 L 488.99946 303.60422000000005 L 487.37226 315.90222000000006 L 485.74505999999997 328.20022000000006 L 484.62516 332.90242000000006 L 483.50526 337.60462000000007 L 482.99155 339.10462000000007 L 482.47785 340.60462000000007 L 480.02955 320.60462000000007 L 474.82115 299.10962000000006 L 470.55244999999996 290.6050200000001 L 466.48744999999997 286.1666200000001 L 465.16114999999996 286.9863000000001 L 471.08365 319.60530000000006 L 471.24965 354.60530000000006 L 466.69955 374.43330000000003 L 460.46855 389.40130000000005 L 450.82105 403.8253 L 447.47865 406.59920000000005 L 448.23900000000003 403.1025000000001 L 448.99936 399.6058000000001 L 449.45871 377.2258000000001 L 449.91807 354.8458000000001 L 448.15547 353.0832000000001 L 443.86437 363.6062000000001 L 437.94027 382.6062000000001 L 433.83917 399.6062000000001 L 432.78297000000003 406.1062000000001 L 431.72677000000004 412.6062000000001 L 431.11358000000007 426.1062000000001 L 430.50040000000007 439.6062000000001 L 432.89810000000006 460.15820000000014 L 438.98740000000004 480.6062000000001 L 448.84060000000005 500.27620000000013 L 460.53560000000004 517.6062000000002 L 475.5436 534.6062000000002 L 489.1736 546.6062000000002 L 500.61960000000005 555.6062000000002 L 512.2346 563.6062000000002 L 526.1826 572.3500000000001 L 537.2766 578.3665000000001 L 556.2766 587.9077000000001 L 577.2366000000001 597.3074000000001 L 603.8616000000001 610.3544000000002 L 605.2177 608.9983000000002 L 600.5628 590.6063000000001 L 591.0886 571.6063000000001 L 586.2393000000001 564.6063000000001 L 560.4643000000001 530.1063000000001 L 558.7758000000001 530.1063000000001 L 558.7838000000002 545.6063000000001 L 561.2114000000001 560.1063000000001 L 563.6390000000001 574.6063000000001 L 565.8540000000002 580.3765000000002 L 568.0690000000002 586.1467000000002 L 567.5656300000002 586.6500800000002 L 567.0622600000002 587.1534500000002 L 564.2759600000002 586.0331500000002 L 552.8989600000002 570.3161500000002 L 543.9030600000002 553.6071500000003 L 537.8392600000002 536.8991500000003 L 533.8615600000002 510.6071500000003 L 533.8979600000001 501.6071500000003 L 536.8743600000001 478.6071500000003 L 538.9529600000002 471.6071500000003 L 556.7029600000002 434.6071500000003 L 557.3753000000002 431.7465500000003 L 558.0476400000001 428.8859500000003 L 553.2753400000001 430.3212500000003 L 543.2753400000001 436.4956500000003 L 530.2823400000001 446.6066500000003 L 518.7923400000001 457.1066500000003 L 516.5976400000001 457.1066500000003 L 529.01264 433.6066500000003 L 539.50264 417.4546500000003 L 551.07164 401.6066500000003 L 572.30264 380.6066500000003 L 587.85264 369.9326500000003 L 605.3356399999999 361.2455500000003 L 621.2746399999999 355.45815000000033 L 633.5066399999998 352.88975000000033 L 636.2744399999998 351.13375000000036 L 630.2744399999998 346.07225000000034 L 624.2744399999998 342.74115000000035 L 600.7164399999998 341.85766000000035 L 579.5934399999998 346.31186000000037 L 564.2744399999998 352.01026000000036 L 549.5674399999998 358.1061600000004 L 548.7746699999998 358.1061600000004 L 548.7746699999998 356.3905600000004 L 562.9106699999998 345.1275600000004 L 575.8696699999997 337.8803600000004 L 592.2736699999997 330.9227600000004 L 604.7736699999997 327.0255600000004 L 604.6486699999997 325.6059600000004 L 591.2736699999997 314.0759600000004 L 583.2736699999997 306.5186600000004 L 566.2736699999997 288.5186600000004 L 556.3066699999997 276.1726600000004 L 554.8928699999997 277.6056600000004 L 556.3666699999997 289.1056600000004 L 557.8404699999996 300.6056600000004 L 562.9250699999997 320.6056600000004 L 568.5400699999997 334.6056600000004 L 567.5717499999997 335.6056600000004 L 552.9527499999997 320.1446600000004 L 543.9685499999997 306.6056600000004 L 538.6072499999997 296.6056600000004 L 532.8885499999997 282.3426600000004 L 530.5810499999997 272.97396000000043 L 528.2733499999997 263.6053600000004 L 528.3439499999997 222.60536000000042 L 532.8603499999997 188.60536000000042 L 537.7368499999997 168.7353600000004 L 536.8374699999997 167.8359900000004 L 530.2733699999997 170.4666900000004 L 512.2733699999997 180.4836900000004 L 502.27336999999966 187.03139000000039 L 492.77336999999966 194.1250900000004 L 492.77336999999966 191.7215900000004 L 503.2053699999997 175.6055900000004 L 518.2633699999997 155.6055900000004 L 541.2733699999997 132.50059000000041 L 558.8073699999997 120.09759000000041 L 575.2733699999997 111.21149000000041 L 592.2733699999997 105.22689000000041 L 614.2733699999997 100.01379000000041 L 636.2733699999997 97.83119000000042 L 639.2733699999997 96.24029000000041 L 637.7733699999997 95.81210000000041 L 636.2733699999997 95.38390000000041 L 623.2733699999997 91.89510000000041 L 602.2733699999997 86.17860000000042 L 575.5873699999996 86.10580000000041 L 555.2733699999997 90.17000000000041 L 532.6203699999996 97.28630000000041 L 532.1264999999996 96.79244000000041 L 531.6326399999996 96.29857000000041 L 540.2732399999995 90.45097000000041 L 551.2732399999995 84.2603700000004 L 561.9822399999995 80.05247000000041 L 580.2732399999995 75.19897000000041 L 603.2732399999995 72.86267000000042 L 634.2732399999995 74.13887000000042 L 646.2732399999995 75.98037000000042 L 669.1432399999995 80.19677000000041 L 688.7442399999995 86.01997000000041 L 690.6930399999995 87.06287000000042 L 692.6418399999995 88.10577000000042 L 695.7733399999995 88.10577000000042 L 695.7733399999995 79.04877000000042 L 689.5695399999995 66.75877000000042 L 673.2735399999995 50.52877000000042 L 650.9125399999995 34.60577000000042 L 647.2731399999994 32.22337000000042 L 652.2731399999994 32.14057000000042 L 665.8511399999994 35.017770000000425 L 684.7641399999994 44.279370000000426 L 688.5606399999995 49.10587000000043 L 691.1713399999994 49.10587000000043 L 732.2723399999994 89.62287000000043 L 749.2723399999994 99.39327000000043 L 767.2723399999994 110.47727000000043 L 774.7723399999994 116.27407000000044 L 774.7723399999994 114.39847000000043 L 764.0253399999995 91.60547000000042 L 757.8628399999994 72.60547000000042 L 753.7044399999994 55.60547000000042 L 751.4748399999994 36.60547000000042 L 752.2007999999994 29.878770000000422 L 752.9267499999994 23.15207000000042 L 758.2725499999995 12.694070000000421 L 759.2725499999995 12.399240000000422 L 760.2725499999995 12.104420000000422 L 759.5998099999995 29.60542000000042 L 764.6297099999995 48.60542000000042 L 769.5686099999995 61.60542000000042 L 780.9096099999995 84.14342000000042 L 796.6586099999995 107.97842000000043 L 810.7516099999995 122.81442000000042 L 823.2726099999994 129.42972000000043 L 840.1426099999994 140.47372000000044 L 855.4976099999994 155.82872000000043 L 860.8920099999995 167.23172000000042 L 864.6259099999994 186.6047200000004 L 868.0859099999994 193.6047200000004 L 878.6359099999994 205.75572000000042 L 889.2739099999994 213.92362000000043 L 915.2739099999994 230.19062000000042 L 923.5272099999994 238.7280200000004 L 924.6514099999994 243.9701200000004 L 925.7756099999993 249.2123200000004 L 921.6143099999994 269.6053200000004 L 918.9766099999994 277.6053200000004 L 917.8924099999994 281.6482200000004 L 916.8082099999993 285.69112000000035 L 910.2601099999994 288.05892000000034 L 895.2741099999994 297.07202000000035 L 893.1726099999994 297.1054200000003 L 888.5732099999994 287.6054200000003 L 879.8269099999994 275.32142000000033 L 864.8059099999995 261.4804200000003 L 849.5489099999995 252.75122000000033 L 832.9909099999995 246.17712000000034 L 809.2729099999996 240.29942000000034 L 780.2729099999996 236.00942000000035 L 766.7709099999996 233.92412000000036 L 762.8887099999996 230.60512000000037 L 759.5808099999996 224.10512000000037 L 756.2729099999996 217.60512000000037 L 756.2729099999996 184.60512000000037 L 751.7704099999995 176.17992000000038 L 743.5982099999995 168.08892000000037 L 729.2732099999995 158.78552000000036 L 715.2732099999995 151.26632000000035 L 698.2732099999995 146.14572000000035 L 682.2732099999995 143.88842000000037 L 665.6822099999995 145.12362000000036 L 651.4762099999995 150.08672000000035 L 641.6948099999995 156.36342000000036 L 634.7904099999995 164.78942000000035 L 628.2961099999995 178.60542000000035 L 628.2727099999995 207.60542000000035 L 631.5867099999995 216.60542000000035 L 634.9007099999994 225.60542000000035 L 643.6899099999995 241.76142000000036 L 655.2729099999995 257.93142000000034 L 673.1059099999994 278.22942000000035 L 681.7182099999994 285.81022000000036 L 696.2722099999994 290.2963200000004 L 714.2722099999994 296.4654200000004 L 730.2722099999994 302.22232000000037 L 738.9953099999994 305.07722000000035 L 755.2723099999995 307.0617200000004 L 782.6483099999995 309.20992000000035 L 788.9050099999995 311.00432000000035 L 788.5885899999995 310.20463000000035 L 788.2721799999995 309.4049300000004 L 767.8211799999995 293.00393000000037 L 754.7631799999995 278.0319300000004 L 748.5465799999995 265.7169300000004 L 748.0538999999995 260.1611300000004 L 747.5612199999996 254.6053300000004 L 749.3986199999996 247.6053300000004 L 752.2468199999996 247.6053300000004 L 753.6135199999997 257.1600300000004 L 759.0496199999997 266.4361300000004 L 767.3285199999997 274.7150300000004 L 779.0565199999996 283.3788300000004 L 799.7555199999996 293.1424300000004 L 814.1655199999996 298.34043000000037 L 829.2715199999996 301.03563000000037 L 842.2715199999996 301.17203000000035 L 865.5125199999995 305.86023000000034 L 879.9695199999995 313.45713000000035 L 886.1230199999995 319.60543000000035 L 896.7030199999996 333.90643000000034 L 902.1159199999996 338.1642300000003 L 911.2715199999997 342.29143000000033 L 920.2715199999997 344.9140300000003 L 939.2715199999997 348.0479300000003 L 961.9485199999997 349.9269300000003 L 971.2539199999997 355.68003000000033 L 976.6179199999997 366.60503000000034 L 978.8462199999997 378.60503000000034 L 981.0746199999996 390.60503000000034 L 981.5184199999997 394.25223000000034 L 981.9623199999996 397.89943000000034 L 973.2718199999996 408.61043000000035 L 968.2752199999996 418.10473000000036 L 967.0719199999996 418.10473000000036 L 958.4798199999997 411.88073000000037 L 949.2718199999997 406.4724300000004 L 934.2718199999997 401.1293300000004 L 921.2718199999997 399.11993000000035 L 901.9168199999997 399.10393000000033 L 886.2718199999997 401.2145300000003 L 864.2718199999997 407.2184300000003 L 842.2718199999997 415.0040300000003 L 830.4738199999997 418.3324300000003 L 823.7516199999997 415.12683000000027 L 814.5925199999997 406.68423000000024 L 809.7593199999997 397.14633000000026 L 807.7688199999997 391.82633000000027 L 805.7783199999997 386.5063300000003 L 799.7393199999997 376.98393000000027 L 787.2713199999997 371.1922300000003 L 774.2713199999997 369.11913000000027 L 768.0213199999997 369.1111300000003 L 761.7713199999997 369.1051300000003 L 761.7713199999997 370.3311300000003 L 771.4815199999997 387.6051300000003 L 773.7090199999997 392.6051300000003 L 775.9365199999996 397.6051300000003 L 782.6937199999996 416.6051300000003 L 785.1661199999996 427.1051300000003 L 787.6385199999996 437.6051300000003 L 790.0509199999997 461.6051300000003 L 789.4178699999997 474.1051300000003 L 788.7848299999996 486.6051300000003 L 787.3373299999996 509.1051300000003 L 785.8898299999996 531.6051300000004 L 784.7944299999996 546.1051300000004 L 783.6990299999995 560.6051300000004 L 780.7956299999995 582.6051300000004 L 778.7801299999995 593.9821300000003 L 776.7646299999996 605.3591300000003 L 775.2680299999996 609.7673300000002 L 773.7714299999997 614.1755300000002 L 773.7694299999997 615.8906300000002 L 773.7674299999998 617.6056300000002 L 768.2482299999998 633.9136300000002 L 762.7290299999999 650.2216300000002 L 751.1490299999998 674.6046300000003 L 740.5290299999998 692.6046300000003 L 727.9140299999998 711.1046300000003 L 733.2733299999998 711.0648300000003 L 759.2733299999998 708.1747300000003 L 786.2733299999998 703.2697300000003 L 800.5763299999998 699.3546300000003 L 815.2733299999998 693.7433300000002 L 826.4583299999997 687.1935300000002 L 836.7123299999997 677.9742300000003 L 843.2735299999997 664.6462300000003 L 843.2360299999997 654.1252300000003 L 843.1985299999997 643.6042300000004 L 837.5019299999997 627.6042300000004 L 832.1324299999997 617.6042300000004 L 828.8575299999997 611.8542300000004 L 825.5826299999997 606.1042300000004 L 823.5078299999997 604.8219300000004 L 824.9659299999996 616.4919300000004 L 829.5391299999997 636.6039300000003 L 831.2557299999996 641.8058300000004 L 832.9723299999996 647.0077300000004 L 832.5921499999996 648.1483300000003 L 832.2119699999996 649.2888300000003 L 824.6130699999997 641.4592300000003 L 814.8315699999996 626.7952300000003 L 808.4618699999996 611.6042300000003 L 805.8437699999996 599.6042300000003 L 805.7735699999996 581.2802300000003 L 807.2398699999997 573.6166300000003 L 808.7061699999997 565.9530300000004 L 814.8669699999997 547.8640300000004 L 814.1509499999997 547.1480100000005 L 806.9798499999997 556.6040100000005 L 792.6388499999997 578.3020100000005 L 792.1067599999997 577.7699200000004 L 791.5746699999996 577.2378200000004 L 794.0748699999996 569.6038200000004 L 805.8608699999995 543.6038200000004 L 814.1666699999995 529.6038200000004 L 820.1657699999995 521.6038200000004 L 829.2521699999995 511.6038200000004 L 838.1289699999995 504.19312000000036 L 849.7739699999995 497.9865200000004 L 849.7739699999995 495.8252200000004 L 840.2739699999995 496.9664200000004 L 828.2739699999995 502.42512000000045 L 810.2739699999995 512.4010200000005 L 806.7739699999995 515.4138200000004 L 806.7739699999995 512.3238200000004 L 815.4433699999995 500.6038200000004 L 829.5363699999995 487.3638200000004 L 838.2741699999995 481.43132000000037 L 848.2741699999995 476.15622000000036 L 862.2741699999995 471.24142000000035 L 878.2741699999995 469.08432000000033 L 890.2741699999995 468.6040700000003 L 878.5111699999994 460.96067000000033 L 866.2741699999995 455.43137000000036 L 850.2741699999995 451.09677000000033 L 841.7741699999995 449.02697000000035 L 841.7741699999995 447.3540700000003 L 848.0241699999995 446.1040700000003 L 859.5581699999994 446.1040700000003 L 880.1171699999994 450.22557000000035 L 892.2741699999995 454.3291700000003 L 908.2741699999995 461.4296700000003 L 914.2741699999995 465.56387000000035 L 925.8791699999995 475.3325700000004 L 926.6908499999995 474.5209000000004 L 923.8455499999995 462.6039000000004 L 923.8099499999995 457.9592000000004 L 923.7743499999995 453.3145000000004 L 925.7636499999994 446.8740000000004 L 927.7529499999994 440.43350000000044 L 933.6606499999994 432.27810000000045 L 943.0934499999994 425.7882000000005 L 957.7744499999994 421.25860000000046 L 957.7744499999994 423.00770000000045 L 949.0046499999994 429.04150000000044 L 943.9230499999994 435.08070000000043 L 942.7050499999995 440.52330000000046 L 941.4870499999995 445.9659000000005 L 943.8675499999995 458.0659000000005 L 949.0852499999995 469.6039000000005 L 959.0365499999995 484.6039000000005 L 964.0523499999995 490.81960000000055 L 969.0680499999995 497.0353000000006 L 976.7864499999995 502.3842000000006 L 983.8882499999995 509.8604000000006 L 990.9899499999996 517.3367000000006 L 993.0023499999995 521.8860000000006 L 995.0146499999995 526.4353000000007 L 995.7751499999995 536.1121000000006 L 996.5355499999995 545.7889000000006 L 997.7918499999995 548.1964000000006 L 999.0480499999995 550.6039000000006 L 1005.8822499999995 560.0187000000006 L 1024.7512499999996 576.1587000000006 L 1026.2628499999996 579.0818000000006 L 1027.7744499999997 582.0049000000006 L 1027.7744499999997 587.9531000000006 L 1024.8233499999997 595.2787000000006 L 1021.8723499999996 602.6043000000006 L 1017.8413499999997 610.8692000000007 L 1011.0819499999997 612.1373000000007 L 1002.8710499999996 616.1044000000006 L 1002.0067499999997 616.1044000000006 L 997.4723499999997 604.6044000000006 L 990.7856499999997 594.2824000000006 L 984.6436499999996 588.7242000000006 L 978.5017499999997 583.1660000000005 L 969.8880499999997 578.7504000000005 L 961.2744499999997 574.3348000000004 L 949.2744499999997 570.2420000000004 L 928.2744499999997 563.9132000000004 L 925.8814499999996 561.6043000000004 L 923.3680499999996 552.1357000000004 L 926.7843499999996 542.6043000000004 L 926.7743499999996 535.0050000000005 L 923.8461499999996 529.3426000000004 L 917.8533499999996 524.3000000000004 L 908.7698499999997 520.8310000000004 L 896.0018499999996 521.8559000000004 L 885.3458499999997 527.6045000000004 L 879.0100499999998 535.9515000000004 L 876.8924499999997 542.2222000000004 L 874.7748499999997 548.4929000000004 L 874.8148499999996 563.6049000000004 L 879.5440499999996 581.6049000000004 L 882.2428499999996 587.6049000000004 L 884.9416499999996 593.6049000000004 L 896.8556499999996 610.0549000000004 L 902.8106499999997 622.7809000000004 L 904.4045499999996 629.6933000000005 L 905.9984499999996 636.6057000000005 L 906.9700499999996 651.7577000000006 L 902.5822499999996 673.4337000000006 L 896.8088499999996 687.8517000000006 L 889.7850499999995 700.2777000000007 L 880.2741499999995 714.5517000000007 L 859.3851499999995 736.2367000000006 L 846.8151499999994 745.6047000000007 L 821.6921499999994 758.6047000000007 L 815.2733499999994 762.0086000000007 L 816.3926499999993 762.1046000000007 L 847.8596499999993 751.1136000000007 L 866.7566499999994 748.8849000000007 L 869.7726499999993 750.0423000000008 L 869.7726499999993 752.1914000000007 L 859.5766499999993 761.5837000000007 L 854.7728499999993 769.7808000000007 L 854.7728499999993 776.0590000000007 L 859.5610499999992 779.1964000000006 L 865.2728499999993 777.8245000000006 L 871.2728499999993 774.8007000000006 L 881.8758499999992 766.1708000000006 L 888.4564499999992 764.3538000000005 L 898.2730499999992 765.9225000000006 L 919.2730499999992 775.8389000000005 L 929.2730499999992 779.8830000000005 L 955.2730499999992 789.9790000000005 L 966.2730499999992 793.9962000000005 L 991.2730499999992 800.5441000000005 L 1013.2730499999992 800.6051000000006 L 1018.9967499999992 797.9224000000006 L 1024.7205499999993 795.2398000000006 L 1028.7655499999994 788.6051000000007 L 1028.7655499999994 783.2585000000007 L 1026.1352499999994 780.1326000000007 L 1023.5050499999994 777.0067000000007 L 1013.6650499999994 772.0204000000007 L 1001.2650499999994 770.8656000000007 L 993.7650499999994 774.0029000000006 L 993.7650499999994 778.8092000000006 L 996.0548499999994 782.2071000000007 L 998.3447499999994 785.6050000000007 L 1005.1853499999994 785.6050000000007 L 1007.5440499999994 782.1050000000007 L 1009.9026499999994 778.6050000000007 L 1012.2650499999994 778.6050000000007 L 1012.5618499999994 782.6367000000007 L 1012.8587499999994 786.6684000000007 L 1008.2650499999994 790.9036000000007 L 1003.4801499999994 792.5043000000006 L 998.6951499999994 794.1050000000006 L 990.7008499999995 794.1050000000006 L 983.8866499999995 791.2578000000005 L 981.2172499999995 787.0292000000005 L 978.5477499999995 782.8006000000005 L 978.0204499999995 776.9848000000005 L 977.4930499999996 771.1690000000006 L 980.9344499999996 765.9168000000005 L 992.2654499999996 760.6050000000006 L 1016.2654499999996 760.6936000000006 L 1032.1324499999996 767.2300000000006 L 1038.2655499999996 771.4223000000006 L 1044.9408499999997 777.6050000000006 L 1047.0911499999997 781.6050000000006 L 1049.2415499999997 785.6050000000006 L 1049.2655499999996 802.6050000000006 L 1044.6449499999997 811.9856000000005 L 1038.4807499999997 818.0123000000006 L 1031.2655499999996 821.6050000000006 L 92.26554999999962 822.0366400000006 L 89.13604999999961 820.6697400000006 z M 690.55 546.6899999999999 L 695.7428 536.2719999999999 L 700.0735999999999 525.6089999999999 L 706.7488999999999 503.6089999999999 L 711.1779999999999 467.9939999999999 L 707.6375999999999 443.6089999999999 L 702.5348999999999 428.6089999999999 L 694.7017999999999 412.6089999999999 L 683.2778 395.72799999999995 L 679.9688 393.73999999999995 L 662.2778 405.448 L 651.2778 413.97799999999995 L 642.0904999999999 422.60949999999997 L 633.7690999999999 433.30049999999994 L 626.9142999999999 445.60949999999997 L 623.7778999999999 459.2335 L 623.7778999999999 465.255 L 627.9962999999999 482.609 L 631.3939999999999 489.109 L 634.7916999999999 495.609 L 644.5963999999999 508.609 L 670.9563999999999 537.6089999999999 L 683.8023999999999 557.1089999999999 L 685.3575999999999 557.1089999999999 z M 982.3599999999999 545.75685 L 982.8785999999999 544.40535 L 980.6920999999999 538.00685 L 978.5054999999999 531.60835 L 971.7756999999999 522.33645 L 966.8833999999999 519.13085 L 964.0495 520.21835 L 961.7786 525.20245 L 961.7786 530.10835 L 964.6252 530.10835 L 970.8350999999999 535.3336499999999 L 979.8954999999999 547.1086499999999 L 981.8413999999999 547.1086499999999 z M 148.9799999999999 492.35884999999996 L 150.4893999999999 490.60884999999996 L 156.2804999999999 479.60884999999996 L 165.7804999999999 470.01365 L 165.7804999999999 467.57315 L 160.8272999999999 460.28385 L 156.6853999999999 461.36695 L 151.8600999999999 467.69314999999995 L 146.8880999999999 478.60914999999994 L 146.19635999999988 486.35914999999994 L 145.50462999999988 494.10914999999994 L 147.47052999999988 494.10914999999994 z M 880.7299999999999 348.04884999999996 L 877.6289999999999 344.13354999999996 L 870.2808999999999 338.01324999999997 L 855.6398999999999 331.01914999999997 L 845.2808999999999 329.12784999999997 L 839.2808999999999 330.74544999999995 L 838.6866999999999 337.66804999999994 L 841.3005999999998 345.61314999999996 L 854.2805999999998 344.96469999999994 L 862.2805999999998 347.02509999999995 L 882.2805999999998 352.8871 L 883.0556299999998 352.42564999999996 L 883.8306699999998 351.96419999999995 z M 839.9159999999999 182.53884999999997 L 835.9237999999999 174.21884999999997 L 822.6687999999999 160.96384999999998 L 815.8446999999999 158.11254999999997 L 812.1508999999999 158.11254999999997 L 808.9443999999999 164.83664999999996 L 808.2488899999998 169.47454999999997 L 807.5533899999998 174.11244999999997 L 812.3877899999998 174.11244999999997 L 822.2804899999998 179.07224999999997 L 843.2804899999998 198.84524999999996 L 843.5941999999998 194.85164999999998 L 843.9078999999998 190.85805 z M 287.67599999999993 131.57784999999996 L 290.77959999999996 128.04304999999997 L 290.77959999999996 124.25784999999996 L 285.72869999999995 120.28484999999996 L 271.30869999999993 117.85264999999997 L 255.88469999999992 119.04204999999997 L 248.60359999999991 122.08424999999997 L 249.4253799999999 124.54954999999997 L 274.3173799999999 130.61264999999997 L 281.2792799999999 135.07894999999996 L 282.92567999999994 135.09574999999995 L 284.57207999999997 135.11264999999995 L 287.67567999999994 131.57784999999996 z" stroke-linecap="round" />
</g>
</svg>